<?xml version="1.0"?>
<svg width="601" height="227" xmlns="http://www.w3.org/2000/svg" xmlns:svg="http://www.w3.org/2000/svg" clip-rule="evenodd" fill-rule="evenodd" stroke-linejoin="round" version="1.1" xml:space="preserve">

 <g class="layer">
  <title>Layer 1</title>
  <rect fill="none" height="226.79" id="Artboard1" width="600.64" x="0" y="0"/>
  <path d="m280.58,153.23l-16.92,0l-27.12,-78.33l17.87,0l17.7,59.58l17.77,-59.58l17.95,0l-27.25,78.33zm44.76,-24.34c0.16,1.3 0.43,2.52 0.81,3.69c0.65,1.97 1.6,3.67 2.84,5.1c1.25,1.42 2.75,2.54 4.52,3.33c1.77,0.8 3.79,1.2 6.05,1.2c2.81,0 5.43,-0.55 7.84,-1.64c2.42,-1.1 4.5,-2.76 6.26,-4.99l7.52,8.17c-1.21,1.76 -2.86,3.45 -4.96,5.07c-2.09,1.63 -4.61,2.95 -7.56,3.96c-2.95,1.02 -6.31,1.53 -10.07,1.53c-4.51,0 -8.56,-0.73 -12.15,-2.18c-3.59,-1.46 -6.63,-3.48 -9.12,-6.06c-2.5,-2.58 -4.4,-5.59 -5.72,-9c-1.31,-3.42 -1.97,-7.08 -1.97,-10.97l0,-2.12c0,-4.42 0.62,-8.46 1.88,-12.12c1.25,-3.66 3.05,-6.83 5.41,-9.51c2.35,-2.68 5.21,-4.75 8.58,-6.21c3.36,-1.46 7.15,-2.19 11.36,-2.19c4.14,0 7.8,0.68 10.99,2.04c3.19,1.36 5.86,3.29 8.03,5.8c2.17,2.5 3.81,5.5 4.92,9c1.12,3.49 1.68,7.38 1.68,11.67l0,6.43l-37.14,0zm0.19,-10.31l21.75,0l0,-1.19c-0.03,-2.14 -0.42,-4.07 -1.19,-5.78c-0.77,-1.71 -1.92,-3.06 -3.46,-4.06c-1.53,-0.99 -3.49,-1.49 -5.88,-1.49c-2.06,0 -3.83,0.44 -5.31,1.33c-1.48,0.89 -2.67,2.14 -3.58,3.75c-0.92,1.61 -1.59,3.51 -2.03,5.69c-0.11,0.57 -0.21,1.15 -0.3,1.75zm110.12,28.41c-1.67,2.17 -3.65,3.88 -5.91,5.15c-2.58,1.44 -5.6,2.17 -9.05,2.17c-3.6,0 -6.81,-0.74 -9.63,-2.21c-2.81,-1.47 -5.18,-3.53 -7.11,-6.19c-1.93,-2.65 -3.4,-5.77 -4.41,-9.37c-1.01,-3.59 -1.51,-7.5 -1.51,-11.73l0,-1.13c0,-4.43 0.5,-8.46 1.51,-12.1c1.01,-3.64 2.48,-6.77 4.43,-9.4c1.94,-2.63 4.32,-4.66 7.15,-6.09c2.83,-1.43 6.05,-2.14 9.68,-2.14c3.41,0 6.4,0.72 8.96,2.16c1.91,1.08 3.61,2.48 5.1,4.21l0,-29.72l15.58,0l0,82.63l-14.03,0l-0.76,-6.24zm-0.79,-34.64c-0.38,-0.79 -0.82,-1.51 -1.32,-2.17c-0.98,-1.3 -2.2,-2.29 -3.66,-3c-1.46,-0.7 -3.17,-1.05 -5.15,-1.05c-2.02,0 -3.74,0.45 -5.16,1.35c-1.42,0.9 -2.58,2.14 -3.47,3.73c-0.89,1.59 -1.54,3.45 -1.95,5.58c-0.41,2.12 -0.61,4.42 -0.61,6.89l0,1.13c0,2.42 0.19,4.67 0.58,6.75c0.38,2.09 1.01,3.92 1.89,5.51c0.88,1.58 2.03,2.82 3.44,3.7c1.42,0.89 3.14,1.33 5.17,1.33c2.65,0 4.83,-0.6 6.55,-1.8c1.56,-1.09 2.79,-2.57 3.69,-4.42l0,-23.53zm43.13,2.51l0,38.37l-15.5,0l0,-58.21l14.61,0l0.5,7.15c0.15,-0.27 0.3,-0.54 0.46,-0.79c1.45,-2.36 3.23,-4.19 5.35,-5.49c2.12,-1.3 4.55,-1.94 7.29,-1.94c0.84,0 1.71,0.06 2.6,0.18c0.9,0.13 1.64,0.29 2.21,0.5l-0.23,14.39c-0.75,-0.11 -1.66,-0.21 -2.72,-0.3c-1.07,-0.09 -2.03,-0.13 -2.89,-0.13c-2.17,0 -4.06,0.28 -5.66,0.84c-1.6,0.56 -2.93,1.37 -3.99,2.43c-0.85,0.84 -1.52,1.84 -2.03,3zm89.19,32.13c-1.67,2.17 -3.64,3.88 -5.91,5.15c-2.58,1.44 -5.6,2.17 -9.05,2.17c-3.6,0 -6.81,-0.74 -9.62,-2.21c-2.82,-1.47 -5.19,-3.53 -7.12,-6.19c-1.93,-2.65 -3.4,-5.77 -4.41,-9.37c-1,-3.59 -1.51,-7.5 -1.51,-11.73l0,-1.13c0,-4.43 0.51,-8.46 1.51,-12.1c1.01,-3.64 2.49,-6.77 4.43,-9.4c1.94,-2.63 4.33,-4.66 7.15,-6.09c2.83,-1.43 6.06,-2.14 9.68,-2.14c3.42,0 6.4,0.72 8.97,2.16c1.9,1.08 3.6,2.48 5.09,4.21l0,-29.72l15.59,0l0,82.63l-14.03,0l-0.77,-6.24zm-0.79,-34.64c-0.38,-0.79 -0.82,-1.51 -1.32,-2.17c-0.98,-1.3 -2.2,-2.29 -3.66,-3c-1.45,-0.7 -3.17,-1.05 -5.15,-1.05c-2.02,0 -3.74,0.45 -5.16,1.35c-1.42,0.9 -2.57,2.14 -3.46,3.73c-0.9,1.59 -1.55,3.45 -1.95,5.58c-0.41,2.12 -0.62,4.42 -0.62,6.89l0,1.13c0,2.42 0.19,4.67 0.58,6.75c0.38,2.09 1.02,3.92 1.89,5.51c0.88,1.58 2.03,2.82 3.44,3.7c1.42,0.89 3.14,1.33 5.18,1.33c2.64,0 4.82,-0.6 6.54,-1.8c1.56,-1.09 2.79,-2.57 3.69,-4.42l0,-23.53zm-178.73,-41.75l0,82.63l-15.54,0l0,-82.63l15.54,0zm131.54,24.42l0,58.21l-15.55,0l0,-58.21l15.55,0zm-16.52,-15.15c0,-2.27 0.79,-4.14 2.37,-5.62c1.58,-1.47 3.69,-2.21 6.33,-2.21c2.63,0 4.75,0.74 6.34,2.21c1.59,1.48 2.39,3.35 2.39,5.62c0,2.25 -0.8,4.11 -2.39,5.58c-1.59,1.47 -3.71,2.21 -6.34,2.21c-2.64,0 -4.75,-0.74 -6.33,-2.21c-1.58,-1.47 -2.37,-3.33 -2.37,-5.58z" fill="#2734c0" id="svg_1" transform="matrix(1, 0, 0, 1, 0, 0)"/>
  <g id="svg_2" transform="matrix(1, 0, 0, 1, 0, 0)">
   <path d="m204.5,154.29c-15.85,34.32 -50.57,58.15 -90.83,58.15c-55.18,0 -99.99,-44.8 -99.99,-99.99c0,-55.18 44.81,-99.99 99.99,-99.99c49.15,0 90.07,35.54 98.43,82.3c-2.13,-0.54 -4.39,-0.81 -6.8,-0.81c-3.91,0 -7.46,0.72 -10.65,2.17c-3.19,1.46 -5.92,3.5 -8.19,6.12c-2.27,2.63 -4.02,5.73 -5.25,9.31c-1.23,3.58 -1.84,7.48 -1.84,11.72l0,1.74c0,4.24 0.61,8.14 1.84,11.7c1.23,3.57 2.99,6.67 5.27,9.3c2.29,2.62 5.03,4.66 8.22,6.12c2.95,1.34 6.21,2.06 9.8,2.16zm7.6,-59.53c1.36,0.34 2.67,0.8 3.92,1.36c3.2,1.46 5.94,3.5 8.23,6.12c2.29,2.63 4.04,5.73 5.26,9.31c1.22,3.58 1.83,7.48 1.83,11.72l0,1.74c0,4.24 -0.61,8.14 -1.83,11.7c-1.22,3.57 -2.97,6.67 -5.25,9.3c-2.27,2.62 -5.01,4.66 -8.19,6.12c-3.18,1.45 -6.74,2.18 -10.66,2.18c-0.31,0 -0.61,-0.01 -0.91,-0.02c0.85,-1.83 1.64,-3.69 2.38,-5.57c2.54,-0.17 4.83,-0.79 6.87,-1.85c2.42,-1.27 4.45,-3 6.1,-5.21c1.65,-2.2 2.9,-4.73 3.75,-7.58c0.86,-2.85 1.28,-5.88 1.28,-9.07l0,-1.75c0,-3.13 -0.42,-6.12 -1.28,-8.97c-0.85,-2.84 -2.11,-5.37 -3.77,-7.6c-1.67,-2.22 -3.72,-3.98 -6.15,-5.27c-0.22,-0.11 -0.43,-0.22 -0.65,-0.32c-0.25,-2.14 -0.55,-4.25 -0.93,-6.34zm-5.22,53.96c-0.48,0.03 -0.97,0.04 -1.47,0.04c-3.18,0 -5.98,-0.63 -8.42,-1.89c-2.44,-1.27 -4.49,-3 -6.15,-5.21c-1.66,-2.2 -2.91,-4.73 -3.76,-7.58c-0.86,-2.85 -1.28,-5.87 -1.28,-9.07l0,-1.74c0,-3.14 0.42,-6.13 1.26,-8.98c0.85,-2.84 2.1,-5.37 3.77,-7.6c1.67,-2.22 3.71,-3.98 6.13,-5.27c2.42,-1.29 5.2,-1.93 8.34,-1.93c2.88,0 5.45,0.53 7.73,1.61c0.42,3.72 0.64,7.51 0.64,11.35c0,12.79 -2.41,25.02 -6.79,36.27zm-78.08,-24.16l41.5,0l0,-3.93c0,-3.89 -0.5,-7.47 -1.5,-10.72c-1.01,-3.25 -2.49,-6.07 -4.45,-8.45c-1.97,-2.37 -4.38,-4.22 -7.24,-5.54c-2.86,-1.31 -6.14,-1.97 -9.83,-1.97c-3.32,0 -6.47,0.68 -9.47,2.05c-2.99,1.38 -5.65,3.36 -7.97,5.95c-2.33,2.59 -4.15,5.7 -5.49,9.32c-1.34,3.62 -2,7.68 -2,12.18l0,2.32c0,4.16 0.64,7.98 1.92,11.47c1.28,3.49 3.09,6.5 5.43,9.05c2.34,2.55 5.1,4.52 8.29,5.92c3.18,1.4 6.67,2.1 10.47,2.1c3.48,0 6.53,-0.47 9.15,-1.42c2.62,-0.94 4.86,-2.19 6.74,-3.76c1.87,-1.57 3.44,-3.29 4.72,-5.15l-4.04,-3.12c-2.11,2.76 -4.5,4.77 -7.16,6.05c-2.67,1.27 -5.71,1.91 -9.14,1.91c-2.96,0 -5.65,-0.6 -8.09,-1.79c-2.44,-1.19 -4.54,-2.84 -6.31,-4.95c-1.77,-2.11 -3.13,-4.56 -4.09,-7.34c-0.96,-2.79 -1.44,-5.78 -1.44,-8.97l0,-1.21zm0.25,-5.52c0.21,-1.88 0.58,-3.65 1.08,-5.32c0.89,-2.93 2.15,-5.45 3.78,-7.58c1.63,-2.12 3.58,-3.76 5.85,-4.92c2.27,-1.15 4.78,-1.73 7.52,-1.73c3.66,0 6.7,0.89 9.12,2.69c2.42,1.79 4.25,4.12 5.5,6.98c1.25,2.86 1.91,5.91 1.98,9.16l0,0.72l-34.83,0zm-21.55,-44.14l-6.59,0l0,66.9l-45.08,-66.9l-6.68,0l0,78.33l6.68,0l0,-66.9l45,66.9l6.67,0l0,-78.33z" fill="#2734c0" id="svg_3"/>
   <path d="m212.1,94.76c0.37,2.09 0.68,4.2 0.93,6.34c-2.28,-1.08 -4.85,-1.61 -7.73,-1.61c-3.14,0 -5.92,0.64 -8.34,1.93c-2.42,1.29 -4.46,3.05 -6.13,5.28c-1.67,2.22 -2.92,4.75 -3.77,7.59c-0.84,2.85 -1.26,5.84 -1.26,8.98l0,1.74c0,3.2 0.42,6.22 1.28,9.07c0.85,2.85 2.1,5.38 3.76,7.58c1.66,2.21 3.71,3.94 6.15,5.21c2.44,1.26 5.24,1.89 8.42,1.89c0.5,0 0.99,-0.01 1.47,-0.04c-0.74,1.88 -1.53,3.74 -2.38,5.57c-3.59,-0.1 -6.85,-0.82 -9.8,-2.16c-3.19,-1.46 -5.93,-3.5 -8.22,-6.12c-2.28,-2.63 -4.04,-5.73 -5.27,-9.3c-1.23,-3.56 -1.84,-7.46 -1.84,-11.7l0,-1.74c0,-4.24 0.61,-8.14 1.84,-11.72c1.23,-3.58 2.98,-6.68 5.25,-9.31c2.27,-2.62 5,-4.66 8.19,-6.12c3.19,-1.45 6.74,-2.17 10.65,-2.17c2.41,0 4.67,0.27 6.8,0.81zm-5.22,53.96c4.38,-11.25 6.78,-23.48 6.78,-36.27c0,-3.84 -0.21,-7.63 -0.63,-11.35c0.22,0.1 0.43,0.21 0.65,0.32c2.43,1.29 4.48,3.05 6.14,5.28c1.67,2.22 2.93,4.75 3.78,7.59c0.86,2.85 1.28,5.84 1.28,8.98l0,1.74c0,3.2 -0.42,6.22 -1.28,9.07c-0.85,2.85 -2.1,5.38 -3.75,7.58c-1.65,2.21 -3.68,3.94 -6.1,5.21c-2.04,1.06 -4.33,1.68 -6.88,1.85l0.01,0zm-99.38,-73.82l0,78.33l-6.67,0l-45,-66.9l0,66.9l-6.67,0l0,-78.33l6.67,0l45.08,66.9l0,-66.9l6.59,0zm21.3,49.66l0,1.21c0,3.19 0.48,6.18 1.44,8.97c0.96,2.79 2.32,5.23 4.09,7.34c1.76,2.11 3.87,3.76 6.31,4.95c2.43,1.19 5.13,1.79 8.09,1.79c3.43,0 6.47,-0.64 9.14,-1.91c2.66,-1.28 5.05,-3.29 7.16,-6.05l4.04,3.12c-1.28,1.86 -2.85,3.58 -4.72,5.15c-1.88,1.57 -4.12,2.82 -6.74,3.76c-2.62,0.95 -5.67,1.42 -9.15,1.42c-3.8,0 -7.29,-0.7 -10.47,-2.1c-3.19,-1.4 -5.95,-3.37 -8.29,-5.92c-2.34,-2.55 -4.15,-5.56 -5.43,-9.05c-1.28,-3.49 -1.93,-7.31 -1.93,-11.47l0,-2.32c0,-4.5 0.67,-8.56 2.01,-12.18c1.34,-3.62 3.16,-6.73 5.49,-9.32c2.32,-2.59 4.98,-4.57 7.97,-5.95c3,-1.37 6.15,-2.05 9.47,-2.05c3.69,0 6.97,0.66 9.83,1.97c2.86,1.32 5.27,3.17 7.24,5.54c1.96,2.38 3.44,5.2 4.45,8.45c1,3.25 1.5,6.83 1.5,10.72l0,3.93l-41.5,0zm0.25,-5.52l34.83,0l0,-0.72c-0.07,-3.25 -0.73,-6.3 -1.98,-9.16c-1.25,-2.86 -3.08,-5.19 -5.5,-6.98c-2.42,-1.8 -5.46,-2.69 -9.12,-2.69c-2.74,0 -5.25,0.58 -7.52,1.73c-2.27,1.16 -4.22,2.8 -5.85,4.92c-1.63,2.13 -2.89,4.65 -3.78,7.58c-0.5,1.67 -0.87,3.44 -1.08,5.32z" fill="#fff" id="svg_4"/>
  </g>
 </g>
</svg>